<!--?xml version="1.0" encoding="utf-8"?-->
<!-- Generator: Adobe Illustrator 19.1.1, SVG Export Plug-In . SVG Version: 6.00 Build 0)  -->
<svg version="1.1" id="_x31_0" xmlns="http://www.w3.org/2000/svg" xmlns:xlink="http://www.w3.org/1999/xlink" x="0px" y="0px" viewBox="0 0 512 512" style="width: 256px; height: 256px; opacity: 1;" xml:space="preserve">
<style type="text/css">
	.st0{fill:#374149;}
</style>
<g>
	<rect x="26.477" y="286.362" class="st0" width="49.679" height="31.038"></rect>
	<rect x="26.477" y="194.599" class="st0" width="49.679" height="31.039"></rect>
	<path class="st0" d="M495.199,60.119c-8.16-6.398-17.762-9.84-27.922-9.84H71.359c-24.722,0-44.882,20.082-44.882,44.801v38.879
		h49.367h0.152l0,0h0.16v-22.797c0-6.242,5.043-11.282,11.282-11.282h363.84c6.16,0,11.199,5.039,11.199,11.282V400.92
		c0,6.16-5.039,11.281-11.199,11.281H87.438c-6.238,0-11.282-5.121-11.282-11.281v-22.879H26.477v38.957
		c0,12.242,5.281,24.242,14.402,32.723c8.238,7.762,19.038,12,30.48,12h395.918c24.64,0,44.722-20.082,44.722-44.723V95.08
		C512,81.4,505.84,68.682,495.199,60.119z"></path>
	<path class="st0" d="M129.68,345.638v12.402h20.476v15.122h12.762h0.039l0,0h0.16v-15.122h48.723v15.122h12.758h0.039l0,0h0.16
		v-15.122h48.801v15.122h12.68h0.039l0,0h0.16v-15.122h48.801v15.122h12.843h0.039l0,0h0.16v-15.122h48.719v15.122H410v-15.122
		h20.254h0.063l0,0h0.16v-12.402H410v-51.438h20.254h0.063l0,0h0.16v-12.48H410v-51.359h20.254h0.063l0,0h0.16v-12.481H410v-51.442
		h20.254h0.063l0,0h0.16v-12.398H410V138.92h-12.961v15.121H348.32V138.92h-13.042v15.121h-48.801V138.92h-12.879v15.121h-48.801
		V138.92H211.84v15.121h-48.723V138.92h-12.961v15.121H129.68v12.398h20.476v51.442H129.68v12.481h20.476v51.359H129.68v12.48
		h20.476v51.438H129.68z M163.117,217.881v-51.442h48.723v51.442H163.117z M163.117,281.721v-51.359h48.723v51.359H163.117z
		 M163.117,345.638v-51.438h48.723v51.438H163.117z M224.797,217.881v-51.442h48.801v51.442H224.797z M224.797,281.721v-51.359
		h48.801v51.359H224.797z M224.797,345.638v-51.438h48.801v51.438H224.797z M286.477,217.881v-51.442h48.801v51.442H286.477z
		 M286.477,281.721v-51.359h48.801v51.359H286.477z M286.477,345.638v-51.438h48.801v51.438H286.477z M348.32,217.881v-51.442
		h48.719v51.442H348.32z M348.32,281.721v-51.359h48.719v51.359H348.32z M348.32,345.638v-51.438h48.719v51.438H348.32z"></path>
	<path class="st0" d="M14,178.599h12.477h49.679h19.602v-28.64H76.156H26.477H14c-7.762,0-14,6.242-14,14v0.722
		C0,172.362,6.238,178.599,14,178.599z"></path>
	<path class="st0" d="M14,270.362h12.477h49.679h19.602v-28.723H76.156H26.477H14c-7.762,0-14,6.321-14,14v0.723
		C0,264.041,6.238,270.362,14,270.362z"></path>
	<path class="st0" d="M76.156,362.041h19.602V333.4H76.156H26.477H14c-7.762,0-14,6.238-14,13.918v0.722c0,7.758,6.238,14,14,14
		h12.477H76.156z"></path>
</g>
</svg>
