<!--?xml version="1.0" encoding="utf-8"?-->
<!-- Generator: Adobe Illustrator 19.1.1, SVG Export Plug-In . SVG Version: 6.00 Build 0)  -->
<svg version="1.1" id="_x31_0" xmlns="http://www.w3.org/2000/svg" xmlns:xlink="http://www.w3.org/1999/xlink" x="0px" y="0px" viewBox="0 0 512 512" style="width: 256px; height: 256px; opacity: 1;" xml:space="preserve">
<style type="text/css">
	.st0{fill:#374149;}
</style>
<g>
	<path class="st0" d="M454.328,30.863h-104.09H161.965H56.813C25.434,30.863,0,56.934,0,88.73v129.121v113.004
		c0,31.801,25.434,57.66,56.813,57.66h397.515c31.801,0,57.672-25.859,57.672-57.66V217.851V88.73
		C512,56.934,486.129,30.863,454.328,30.863z M33.914,217.851V88.73c0-13.133,10.171-23.953,22.898-23.953h65.297h15.902h66.574
		H307.41h67.21h14.832h64.875c13.149,0,23.746,10.82,23.746,23.953v129.121v113.004c0,13.137-10.598,23.734-23.746,23.734H56.813
		c-12.727,0-22.898-10.598-22.898-23.734V217.851z" style="fill: rgb(31, 25, 25);"></path>
	<path class="st0" d="M306.367,451.324h-29.114v-52.91l0.004-0.16h-0.004v-0.16H234.77v53.23h-29.106
		c-10.606,0-19.203,8.59-19.203,19.191v10.43v0.031l0,0v0.16h48.309h42.484h48.317v-10.622
		C325.57,459.914,316.965,451.324,306.367,451.324z" style="fill: rgb(31, 25, 25);"></path>
	<polygon class="st0" points="170.879,92.711 170.879,92.508 170.879,92.508 170.879,92.347 142.258,92.347 127.836,92.347 
		127.836,101.25 127.836,159.55 170.879,159.55 	" style="fill: rgb(31, 25, 25);"></polygon>
	<polygon class="st0" points="111.512,260.621 111.516,260.418 111.512,260.418 111.512,260.258 68.477,260.258 68.477,327.246 
		111.512,327.246 	" style="fill: rgb(31, 25, 25);"></polygon>
	<polygon class="st0" points="111.512,217.851 111.512,176.586 111.516,176.461 111.512,176.461 111.512,176.301 68.477,176.301 
		68.477,217.851 68.477,243.285 111.512,243.285 	" style="fill: rgb(31, 25, 25);"></polygon>
	<polygon class="st0" points="111.512,111.207 111.512,92.562 111.516,92.508 111.512,92.508 111.512,92.347 104.938,92.347 
		68.477,92.347 68.477,159.55 111.512,159.55 	" style="fill: rgb(31, 25, 25);"></polygon>
	<polygon class="st0" points="170.879,217.851 170.879,176.586 170.879,176.461 170.879,176.461 170.879,176.301 127.836,176.301 
		127.836,217.851 127.836,243.285 170.879,243.285 	" style="fill: rgb(31, 25, 25);"></polygon>
	<polygon class="st0" points="170.879,260.621 170.879,260.418 170.879,260.418 170.879,260.258 127.836,260.258 127.836,327.246 
		170.879,327.246 	" style="fill: rgb(31, 25, 25);"></polygon>
	<polygon class="st0" points="307.191,159.55 307.191,92.347 264.164,92.347 264.164,116.504 264.164,159.55 265.641,159.55 	" style="fill: rgb(31, 25, 25);"></polygon>
	<rect x="204.793" y="260.258" class="st0" width="43.039" height="66.989" style="fill: rgb(31, 25, 25);"></rect>
	<polygon class="st0" points="247.832,217.851 247.832,176.301 204.793,176.301 204.793,217.851 204.793,243.285 247.832,243.285 	
		" style="fill: rgb(31, 25, 25);"></polygon>
	<polygon class="st0" points="247.832,159.55 247.832,116.504 247.832,92.347 204.793,92.347 204.793,159.55 245.5,159.55 	" style="fill: rgb(31, 25, 25);"></polygon>
	<polygon class="st0" points="307.191,217.851 307.191,176.301 264.164,176.301 264.164,217.851 264.164,243.285 307.191,243.285 	
		" style="fill: rgb(31, 25, 25);"></polygon>
	<rect x="264.164" y="260.258" class="st0" width="43.027" height="66.989" style="fill: rgb(31, 25, 25);"></rect>
	<polygon class="st0" points="400.477,159.39 400.477,159.55 443.519,159.55 443.519,92.347 406.844,92.347 400.477,92.347 
		400.477,111.847 400.477,159.102 400.477,159.39 	" style="fill: rgb(31, 25, 25);"></polygon>
	<polygon class="st0" points="341.117,327.246 384.152,327.246 384.152,260.258 341.117,260.258 341.117,326.882 341.117,327.086 
		341.117,327.086 	" style="fill: rgb(31, 25, 25);"></polygon>
	<polygon class="st0" points="341.117,243.285 384.152,243.285 384.152,217.851 384.152,176.301 341.117,176.301 341.117,217.851 
		341.117,243.05 341.117,243.125 341.117,243.125 	" style="fill: rgb(31, 25, 25);"></polygon>
	<polygon class="st0" points="341.117,159.39 341.117,159.55 384.152,159.55 384.152,101.879 384.152,92.347 368.676,92.347 
		341.117,92.347 341.117,159.187 341.117,159.39 	" style="fill: rgb(31, 25, 25);"></polygon>
	<polygon class="st0" points="400.477,243.285 443.519,243.285 443.519,217.851 443.519,176.301 400.477,176.301 400.477,217.851 
		400.477,242.973 400.477,243.125 400.477,243.125 	" style="fill: rgb(31, 25, 25);"></polygon>
	<polygon class="st0" points="400.477,327.246 443.519,327.246 443.519,260.258 400.477,260.258 400.477,326.676 400.477,327.086 
		400.477,327.086 	" style="fill: rgb(31, 25, 25);"></polygon>
</g>
</svg>
