<!--?xml version="1.0" encoding="iso-8859-1"?-->
<!-- Generator: Adobe Illustrator 24.0.1, SVG Export Plug-In . SVG Version: 6.00 Build 0)  -->
<svg version="1.1" id="_x34_" xmlns="http://www.w3.org/2000/svg" xmlns:xlink="http://www.w3.org/1999/xlink" x="0px" y="0px" viewBox="0 0 512 374.4" style="opacity: 1; width: 256px;" xml:space="preserve">
<style type="text/css">
	.st0{fill:#E8E8E8;}
	.st1{fill:#C94A49;}
	.st2{fill:#C4CB46;}
	.st3{fill:#2BA27C;}
	.st4{opacity:0.5;fill:#FFFFFF;}
	.st5{opacity:0.15;fill:#040000;}
</style>
<g>
	<g>
		<path class="st0" d="M134.9,349.4V238.6v-75.9V93.8v-1.6V79c0-3.5-2.9-6.4-6.4-6.4h-13.9c0.2-0.7,0.4-1.4,0.4-2.1V62
			c0-3.5-2.9-6.4-6.4-6.4H98.2l1.3-8.1l2-12.7h13.2c2.1,0,3.8-1.7,3.8-3.8V5c0-2.8-2.2-5-5-5H26.6c-2.8,0-5,2.2-5,5v26
			c0,2.1,1.7,3.8,3.8,3.8h13.2l2,12.7l1.3,8.1H31.4c-3.5,0-6.4,2.9-6.4,6.4v8.5c0,0.7,0.2,1.5,0.4,2.1H11.5c-3.5,0-6.4,2.9-6.4,6.4
			v13.3v1.6v68.9v75.9v110.7l-5,19.3c-0.8,2.9,1.4,5.8,4.5,5.8h130.8c3,0,5.2-2.8,4.5-5.8L134.9,349.4z"></path>
		<path class="st0" d="M320.9,349.4V238.6v-75.9V93.8v-1.6V79c0-3.5-2.9-6.4-6.4-6.4h-13.9c0.2-0.7,0.4-1.4,0.4-2.1V62
			c0-3.5-2.9-6.4-6.4-6.4h-10.5l1.3-8.1l2-12.7h13.2c2.1,0,3.8-1.7,3.8-3.8V5c0-2.8-2.2-5-5-5h-86.8c-2.8,0-5,2.2-5,5v26
			c0,2.1,1.7,3.8,3.8,3.8h13.2l2,12.7l1.3,8.1h-10.5c-3.5,0-6.4,2.9-6.4,6.4v8.5c0,0.7,0.2,1.5,0.4,2.1h-13.9
			c-3.5,0-6.4,2.9-6.4,6.4v13.3v1.6v68.9v75.9v110.7l-5,19.3c-0.8,2.9,1.4,5.8,4.5,5.8h130.8c3,0,5.2-2.8,4.5-5.8L320.9,349.4z"></path>
		<path class="st0" d="M511.8,368.6l-5-19.3V238.6v-75.9V93.8v-1.6V79c0-3.5-2.9-6.4-6.4-6.4h-13.9c0.2-0.7,0.4-1.4,0.4-2.1V62
			c0-3.5-2.9-6.4-6.4-6.4h-10.5l1.3-8.1l2-12.7h13.2c2.1,0,3.8-1.7,3.8-3.8V5c0-2.8-2.2-5-5-5h-86.8c-2.8,0-5,2.2-5,5v26
			c0,2.1,1.7,3.8,3.8,3.8h13.2l2,12.7l1.3,8.1h-10.5c-3.5,0-6.4,2.9-6.4,6.4v8.5c0,0.7,0.2,1.5,0.4,2.1h-13.9
			c-3.5,0-6.4,2.9-6.4,6.4v13.3v1.6v68.9v75.9v110.7l-5,19.3c-0.8,2.9,1.4,5.8,4.5,5.8h130.8C510.4,374.4,512.6,371.5,511.8,368.6z"></path>
	</g>
	<g>
		<polygon class="st1" points="101.4,34.8 99.4,47.6 98.2,55.6 41.8,55.6 40.6,47.6 38.6,34.8 		"></polygon>
		<rect x="5.1" y="92.2" class="st1" width="129.7" height="146.4"></rect>
	</g>
	<g>
		<polygon class="st2" points="287.4,34.8 285.4,47.6 284.2,55.6 227.8,55.6 226.6,47.6 224.6,34.8 		"></polygon>
		<rect x="191.1" y="92.2" class="st2" width="129.7" height="146.4"></rect>
	</g>
	<g>
		<polygon class="st3" points="473.4,34.8 471.4,47.6 470.2,55.6 413.8,55.6 412.6,47.6 410.6,34.8 		"></polygon>
		<rect x="377.1" y="92.2" class="st3" width="129.7" height="146.4"></rect>
	</g>
	<g>
		<rect x="26.7" y="3.9" class="st4" width="67.8" height="8.6"></rect>
		<path class="st4" d="M72.7,98.6h-58c-2.7,0-4.9,2.2-4.9,4.9v17.6c0,3.3,3.2,5.7,6.4,4.7l58-17.6c2.1-0.6,3.5-2.6,3.5-4.7
			C77.6,100.8,75.4,98.6,72.7,98.6z"></path>
		<rect x="212.7" y="3.9" class="st4" width="67.8" height="8.6"></rect>
		<path class="st4" d="M258.7,98.6h-58c-2.7,0-4.9,2.2-4.9,4.9v17.6c0,3.3,3.2,5.7,6.4,4.7l58-17.6c2.1-0.6,3.5-2.6,3.5-4.7
			C263.6,100.8,261.4,98.6,258.7,98.6z"></path>
		<rect x="398.7" y="3.9" class="st4" width="67.8" height="8.6"></rect>
		<path class="st4" d="M444.6,98.6h-58c-2.7,0-4.9,2.2-4.9,4.9v17.6c0,3.3,3.2,5.7,6.4,4.7l58-17.6c2.1-0.6,3.5-2.6,3.5-4.7
			C449.6,100.8,447.4,98.6,444.6,98.6z"></path>
	</g>
	<g>
		<path class="st5" d="M134.9,349.4H5.1l-5,19.3c-0.8,2.9,1.4,5.8,4.5,5.8h130.8c3,0,5.2-2.8,4.5-5.8L134.9,349.4z"></path>
		<rect x="33.4" y="130.4" class="st5" width="73.3" height="17.8"></rect>
		<rect x="33.4" y="166.7" class="st5" width="73.3" height="17.8"></rect>
		<polygon class="st5" points="99.4,47.6 101.4,34.8 38.6,34.8 40.6,47.6 		"></polygon>
		<path class="st5" d="M320.9,349.4H191.1l-5,19.3c-0.8,2.9,1.4,5.8,4.5,5.8h130.8c3,0,5.2-2.8,4.5-5.8L320.9,349.4z"></path>
		<rect x="219.4" y="130.4" class="st5" width="73.3" height="17.8"></rect>
		<rect x="219.4" y="166.7" class="st5" width="73.3" height="17.8"></rect>
		<polygon class="st5" points="285.4,47.6 287.4,34.8 224.6,34.8 226.6,47.6 		"></polygon>
		<path class="st5" d="M511.8,368.6l-5-19.3H377.1l-5,19.3c-0.8,2.9,1.4,5.8,4.5,5.8h130.8C510.4,374.4,512.6,371.5,511.8,368.6z"></path>
		<rect x="405.4" y="130.4" class="st5" width="73.3" height="17.8"></rect>
		<rect x="405.4" y="166.7" class="st5" width="73.3" height="17.8"></rect>
		<polygon class="st5" points="471.4,47.6 473.4,34.8 410.6,34.8 412.6,47.6 		"></polygon>
	</g>
</g>
</svg>
