<!--?xml version="1.0" encoding="utf-8"?-->
<!-- Generator: Adobe Illustrator 18.1.1, SVG Export Plug-In . SVG Version: 6.00 Build 0)  -->

<svg version="1.1" id="_x31_0" xmlns="http://www.w3.org/2000/svg" xmlns:xlink="http://www.w3.org/1999/xlink" x="0px" y="0px" viewBox="0 0 512 512" style="width: 32px; height: 32px; opacity: 1;" xml:space="preserve">
<style type="text/css">
	.st0{fill:#374149;}
</style>
<g>
	<path class="st0" d="M258.254,95.867c-16.031,0-31.5,2.465-46.129,6.867c-3.511,1.019-7.019,2.042-10.469,3.289
		c0.09,0.015,0.172,0.043,0.258,0.062c-0.094,0.035-0.192,0.058-0.286,0.094c35.293,6.817,61.855,37.906,61.855,75.18
		c0,42.347-34.258,76.687-76.605,76.687c-16.762,0-32.262-5.386-44.879-14.515c-0.602-0.434-1.16-0.922-1.746-1.371
		c-1.16-0.894-2.332-1.774-3.437-2.73c-0.864-0.746-1.668-1.555-2.497-2.336c-0.785-0.742-1.602-1.454-2.355-2.23
		c-0.844-0.863-1.617-1.794-2.422-2.696c-0.676-0.766-1.387-1.5-2.035-2.289c-0.762-0.934-1.454-1.922-2.172-2.89
		c-0.61-0.824-1.258-1.621-1.84-2.469c-0.898-1.317-1.711-2.695-2.527-4.066c-0.317-0.535-0.676-1.047-0.981-1.59
		c-4.394-7.836-7.437-16.528-8.777-25.786c-0.035,0.078-0.055,0.156-0.09,0.234c-0.015-0.102-0.042-0.199-0.058-0.297
		c-8.246,19.27-12.847,40.527-12.847,62.886c0,88.348,71.613,159.958,160.038,159.958c88.344,0,159.954-71.61,159.954-159.958
		C418.207,167.48,346.598,95.867,258.254,95.867z" style="fill: rgb(255, 255, 255);"></path>
	<path class="st0" d="M26.68,229.601C11.906,229.644-0.023,241.617,0,256.387c0.019,14.73,11.992,26.664,26.722,26.68
		c0.02,0,0.043,0,0.043,0c14.77-0.039,26.703-12.032,26.68-26.786C53.426,241.531,41.43,229.582,26.68,229.601z" style="fill: rgb(255, 255, 255);"></path>
	<path class="st0" d="M57.996,374.254c-9.922,7.25-12.098,21.18-4.844,31.125c4.364,5.965,11.133,9.137,18.012,9.137
		c4.543,0,9.141-1.39,13.114-4.293c9.922-7.25,12.094-21.18,4.843-31.106C81.871,369.175,67.938,367.003,57.996,374.254z" style="fill: rgb(255, 255, 255);"></path>
	<path class="st0" d="M445.054,145.847c5.473,0,11.008-1.687,15.778-5.176c11.883-8.742,14.473-25.457,5.75-37.347
		c-8.746-11.906-25.466-14.492-37.371-5.75c-11.887,8.727-14.473,25.442-5.73,37.348
		C428.695,142.063,436.82,145.847,445.054,145.847z" style="fill: rgb(255, 255, 255);"></path>
	<path class="st0" d="M186.035,62.563c2.762,0,5.558-0.43,8.34-1.328c14.023-4.598,21.656-19.688,17.058-33.715
		c-4.594-14.023-19.691-21.68-33.715-17.082c-14.023,4.598-21.656,19.692-17.058,33.715
		C164.336,55.418,174.813,62.563,186.035,62.563z" style="fill: rgb(255, 255, 255);"></path>
	<path class="st0" d="M57.523,138.289c3.958,2.847,8.516,4.238,13.043,4.238c6.91,0,13.699-3.207,18.062-9.211
		c7.215-9.977,4.989-23.89-4.988-31.106c-9.957-7.214-23.871-4.988-31.086,4.989C45.34,117.156,47.566,131.074,57.523,138.289z" style="fill: rgb(255, 255, 255);"></path>
	<path class="st0" d="M195.152,450.734c-14.046-4.534-29.117,3.165-33.648,17.207c-4.554,14.047,3.164,29.122,17.207,33.653
		c2.718,0.878,5.496,1.305,8.21,1.305c11.29,0,21.762-7.203,25.442-18.516C216.894,470.339,209.199,455.289,195.152,450.734z" style="fill: rgb(255, 255, 255);"></path>
	<path class="st0" d="M461.297,370.242c-11.953-8.679-28.648-6.05-37.332,5.902c-8.68,11.93-6.047,28.645,5.883,37.324
		c4.746,3.466,10.262,5.11,15.691,5.11c8.274,0,16.418-3.805,21.656-11.008C475.875,395.64,473.222,378.922,461.297,370.242z" style="fill: rgb(255, 255, 255);"></path>
	<path class="st0" d="M489.641,232.957c-12.313,0.054-22.234,10.062-22.18,22.359c0,0.09,0,0.156,0,0.25
		c0,12.293,9.957,22.266,22.27,22.266c12.293,0,22.27-9.973,22.27-22.266c0-0.055,0-0.11,0-0.161c0-0.09,0-0.179,0-0.27
		C511.946,242.843,501.934,232.902,489.641,232.957z" style="fill: rgb(255, 255, 255);"></path>
	<path class="st0" d="M323.047,454.847c-11.688,3.809-18.082,16.371-14.27,28.078c3.046,9.406,11.777,15.371,21.164,15.371
		c2.277,0,4.598-0.356,6.894-1.106c11.687-3.793,18.086-16.371,14.289-28.055C347.313,457.43,334.75,451.051,323.047,454.847z" style="fill: rgb(255, 255, 255);"></path>
	<path class="st0" d="M322.246,56.629c2.262,0.71,4.558,1.07,6.804,1.07c9.422,0,18.172-6.024,21.2-15.465
		c3.777-11.723-2.672-24.266-14.395-28.024c-11.703-3.758-24.246,2.688-28.007,14.394C304.09,40.312,310.539,52.855,322.246,56.629z
		" style="fill: rgb(255, 255, 255);"></path>
</g>
</svg>
